<svg width="1360" height="800" viewBox="0 0 1360 800" fill="none" xmlns="http://www.w3.org/2000/svg">
<g filter="url(#filter0_f_518_2379)">
<ellipse cx="680.237" cy="399.763" rx="139.237" ry="139.238" transform="rotate(-90 680.237 399.763)" fill="#3C459A" fill-opacity="0.5"/>
</g>
<mask id="mask0_518_2379" style="mask-type:alpha" maskUnits="userSpaceOnUse" x="-15" y="-40" width="1391" height="880">
<rect x="-15" y="-40" width="1391" height="880" fill="url(#paint0_radial_518_2379)"/>
</mask>
<g mask="url(#mask0_518_2379)">
<rect x="-30.5" y="-39.5" width="79" height="79" stroke="white" stroke-opacity="0.6"/>
<rect x="48.5" y="-39.5" width="79" height="79" stroke="white" stroke-opacity="0.6"/>
<rect x="127.5" y="-39.5" width="79" height="79" stroke="white" stroke-opacity="0.6"/>
<rect x="206.5" y="-39.5" width="79" height="79" stroke="white" stroke-opacity="0.6"/>
<rect x="285.5" y="-39.5" width="79" height="79" stroke="white" stroke-opacity="0.6"/>
<rect x="364.5" y="-39.5" width="79" height="79" stroke="white" stroke-opacity="0.6"/>
<rect x="443.5" y="-39.5" width="79" height="79" stroke="white" stroke-opacity="0.6"/>
<rect x="522.5" y="-39.5" width="79" height="79" stroke="white" stroke-opacity="0.6"/>
<rect x="601.5" y="-39.5" width="79" height="79" stroke="white" stroke-opacity="0.6"/>
<rect x="680.5" y="-39.5" width="79" height="79" stroke="white" stroke-opacity="0.6"/>
<rect x="759.5" y="-39.5" width="79" height="79" stroke="white" stroke-opacity="0.6"/>
<rect x="838.5" y="-39.5" width="79" height="79" stroke="white" stroke-opacity="0.6"/>
<rect x="917.5" y="-39.5" width="79" height="79" stroke="white" stroke-opacity="0.6"/>
<rect x="996.5" y="-39.5" width="79" height="79" stroke="white" stroke-opacity="0.6"/>
<rect x="1075.5" y="-39.5" width="79" height="79" stroke="white" stroke-opacity="0.6"/>
<rect x="1154.5" y="-39.5" width="79" height="79" stroke="white" stroke-opacity="0.6"/>
<rect x="1233.5" y="-39.5" width="79" height="79" stroke="white" stroke-opacity="0.6"/>
<rect x="1312.5" y="-39.5" width="79" height="79" stroke="white" stroke-opacity="0.6"/>
<rect x="-30.5" y="40.5" width="79" height="79" stroke="white" stroke-opacity="0.6"/>
<rect x="48.5" y="40.5" width="79" height="79" stroke="white" stroke-opacity="0.6"/>
<rect x="127.5" y="40.5" width="79" height="79" stroke="white" stroke-opacity="0.6"/>
<rect x="206.5" y="40.5" width="79" height="79" stroke="white" stroke-opacity="0.6"/>
<rect x="285.5" y="40.5" width="79" height="79" stroke="white" stroke-opacity="0.6"/>
<rect x="364.5" y="40.5" width="79" height="79" stroke="white" stroke-opacity="0.6"/>
<rect x="443.5" y="40.5" width="79" height="79" stroke="white" stroke-opacity="0.6"/>
<rect x="522.5" y="40.5" width="79" height="79" stroke="white" stroke-opacity="0.6"/>
<rect x="601" y="40" width="80" height="80" fill="white" fill-opacity="0.25"/>
<rect x="601.5" y="40.5" width="79" height="79" stroke="white" stroke-opacity="0.6"/>
<rect x="680.5" y="40.5" width="79" height="79" stroke="white" stroke-opacity="0.6"/>
<rect x="759.5" y="40.5" width="79" height="79" stroke="white" stroke-opacity="0.6"/>
<rect x="838" y="40" width="80" height="80" fill="white" fill-opacity="0.25"/>
<rect x="838.5" y="40.5" width="79" height="79" stroke="white" stroke-opacity="0.6"/>
<rect x="917.5" y="40.5" width="79" height="79" stroke="white" stroke-opacity="0.6"/>
<rect x="996.5" y="40.5" width="79" height="79" stroke="white" stroke-opacity="0.6"/>
<rect x="1075.5" y="40.5" width="79" height="79" stroke="white" stroke-opacity="0.6"/>
<rect x="1154.5" y="40.5" width="79" height="79" stroke="white" stroke-opacity="0.6"/>
<rect x="1233.5" y="40.5" width="79" height="79" stroke="white" stroke-opacity="0.6"/>
<rect x="1312.5" y="40.5" width="79" height="79" stroke="white" stroke-opacity="0.6"/>
<rect x="-30.5" y="120.5" width="79" height="79" stroke="white" stroke-opacity="0.6"/>
<rect x="48.5" y="120.5" width="79" height="79" stroke="white" stroke-opacity="0.6"/>
<rect x="127.5" y="120.5" width="79" height="79" stroke="white" stroke-opacity="0.6"/>
<rect x="206.5" y="120.5" width="79" height="79" stroke="white" stroke-opacity="0.6"/>
<rect x="285.5" y="120.5" width="79" height="79" stroke="white" stroke-opacity="0.6"/>
<rect x="364" y="120" width="80" height="80" fill="white" fill-opacity="0.25"/>
<rect x="364.5" y="120.5" width="79" height="79" stroke="white" stroke-opacity="0.6"/>
<rect x="443.5" y="120.5" width="79" height="79" stroke="white" stroke-opacity="0.6"/>
<rect x="522" y="120" width="80" height="80" fill="white" fill-opacity="0.25"/>
<rect x="522.5" y="120.5" width="79" height="79" stroke="white" stroke-opacity="0.6"/>
<rect x="601.5" y="120.5" width="79" height="79" stroke="white" stroke-opacity="0.6"/>
<rect x="680.5" y="120.5" width="79" height="79" stroke="white" stroke-opacity="0.6"/>
<rect x="759.5" y="120.5" width="79" height="79" stroke="white" stroke-opacity="0.6"/>
<rect x="838.5" y="120.5" width="79" height="79" stroke="white" stroke-opacity="0.6"/>
<rect x="917.5" y="120.5" width="79" height="79" stroke="white" stroke-opacity="0.6"/>
<rect x="996.5" y="120.5" width="79" height="79" stroke="white" stroke-opacity="0.6"/>
<rect x="1075.5" y="120.5" width="79" height="79" stroke="white" stroke-opacity="0.6"/>
<rect x="1154.5" y="120.5" width="79" height="79" stroke="white" stroke-opacity="0.6"/>
<rect x="1233.5" y="120.5" width="79" height="79" stroke="white" stroke-opacity="0.6"/>
<rect x="1312.5" y="120.5" width="79" height="79" stroke="white" stroke-opacity="0.6"/>
<rect x="-30.5" y="200.5" width="79" height="79" stroke="white" stroke-opacity="0.6"/>
<rect x="48.5" y="200.5" width="79" height="79" stroke="white" stroke-opacity="0.6"/>
<rect x="127.5" y="200.5" width="79" height="79" stroke="white" stroke-opacity="0.6"/>
<rect x="206.5" y="200.5" width="79" height="79" stroke="white" stroke-opacity="0.6"/>
<rect x="285.5" y="200.5" width="79" height="79" stroke="white" stroke-opacity="0.6"/>
<rect x="364.5" y="200.5" width="79" height="79" stroke="white" stroke-opacity="0.6"/>
<rect x="443.5" y="200.5" width="79" height="79" stroke="white" stroke-opacity="0.6"/>
<rect x="522.5" y="200.5" width="79" height="79" stroke="white" stroke-opacity="0.6"/>
<rect x="601.5" y="200.5" width="79" height="79" stroke="white" stroke-opacity="0.6"/>
<rect x="680" y="200" width="80" height="80" fill="white" fill-opacity="0.25"/>
<rect x="680.5" y="200.5" width="79" height="79" stroke="white" stroke-opacity="0.6"/>
<rect x="759.5" y="200.5" width="79" height="79" stroke="white" stroke-opacity="0.6"/>
<rect x="838.5" y="200.5" width="79" height="79" stroke="white" stroke-opacity="0.6"/>
<rect x="917" y="200" width="80" height="80" fill="white" fill-opacity="0.25"/>
<rect x="917.5" y="200.5" width="79" height="79" stroke="white" stroke-opacity="0.6"/>
<rect x="996.5" y="200.5" width="79" height="79" stroke="white" stroke-opacity="0.6"/>
<rect x="1075.5" y="200.5" width="79" height="79" stroke="white" stroke-opacity="0.6"/>
<rect x="1154.5" y="200.5" width="79" height="79" stroke="white" stroke-opacity="0.6"/>
<rect x="1233.5" y="200.5" width="79" height="79" stroke="white" stroke-opacity="0.6"/>
<rect x="1312.5" y="200.5" width="79" height="79" stroke="white" stroke-opacity="0.6"/>
<rect x="-30.5" y="280.5" width="79" height="79" stroke="white" stroke-opacity="0.6"/>
<rect x="48.5" y="280.5" width="79" height="79" stroke="white" stroke-opacity="0.6"/>
<rect x="127.5" y="280.5" width="79" height="79" stroke="white" stroke-opacity="0.6"/>
<rect x="206.5" y="280.5" width="79" height="79" stroke="white" stroke-opacity="0.6"/>
<rect x="285.5" y="280.5" width="79" height="79" stroke="white" stroke-opacity="0.6"/>
<rect x="364.5" y="280.5" width="79" height="79" stroke="white" stroke-opacity="0.6"/>
<rect x="443.5" y="280.5" width="79" height="79" stroke="white" stroke-opacity="0.6"/>
<rect x="522" y="280" width="80" height="80" fill="white" fill-opacity="0.25"/>
<rect x="522.5" y="280.5" width="79" height="79" stroke="white" stroke-opacity="0.6"/>
<rect x="601.5" y="280.5" width="79" height="79" stroke="white" stroke-opacity="0.6"/>
<rect x="680.5" y="280.5" width="79" height="79" stroke="white" stroke-opacity="0.6"/>
<rect x="759.5" y="280.5" width="79" height="79" stroke="white" stroke-opacity="0.6"/>
<rect x="838.5" y="280.5" width="79" height="79" stroke="white" stroke-opacity="0.6"/>
<rect x="917.5" y="280.5" width="79" height="79" stroke="white" stroke-opacity="0.6"/>
<rect x="996.5" y="280.5" width="79" height="79" stroke="white" stroke-opacity="0.6"/>
<rect x="1075.5" y="280.5" width="79" height="79" stroke="white" stroke-opacity="0.6"/>
<rect x="1154.5" y="280.5" width="79" height="79" stroke="white" stroke-opacity="0.6"/>
<rect x="1233.5" y="280.5" width="79" height="79" stroke="white" stroke-opacity="0.6"/>
<rect x="1312.5" y="280.5" width="79" height="79" stroke="white" stroke-opacity="0.6"/>
<rect x="-30.5" y="360.5" width="79" height="79" stroke="white" stroke-opacity="0.6"/>
<rect x="48.5" y="360.5" width="79" height="79" stroke="white" stroke-opacity="0.6"/>
<rect x="127.5" y="360.5" width="79" height="79" stroke="white" stroke-opacity="0.6"/>
<rect x="206.5" y="360.5" width="79" height="79" stroke="white" stroke-opacity="0.6"/>
<rect x="285.5" y="360.5" width="79" height="79" stroke="white" stroke-opacity="0.6"/>
<rect x="364.5" y="360.5" width="79" height="79" stroke="white" stroke-opacity="0.6"/>
<rect x="443.5" y="360.5" width="79" height="79" stroke="white" stroke-opacity="0.6"/>
<rect x="522.5" y="360.5" width="79" height="79" stroke="white" stroke-opacity="0.6"/>
<rect x="601.5" y="360.5" width="79" height="79" stroke="white" stroke-opacity="0.6"/>
<rect x="680.5" y="360.5" width="79" height="79" stroke="white" stroke-opacity="0.6"/>
<rect x="759" y="360" width="80" height="80" fill="white" fill-opacity="0.25"/>
<rect x="759.5" y="360.5" width="79" height="79" stroke="white" stroke-opacity="0.6"/>
<rect x="838.5" y="360.5" width="79" height="79" stroke="white" stroke-opacity="0.6"/>
<rect x="917.5" y="360.5" width="79" height="79" stroke="white" stroke-opacity="0.6"/>
<rect x="996.5" y="360.5" width="79" height="79" stroke="white" stroke-opacity="0.6"/>
<rect x="1075.5" y="360.5" width="79" height="79" stroke="white" stroke-opacity="0.6"/>
<rect x="1154.5" y="360.5" width="79" height="79" stroke="white" stroke-opacity="0.6"/>
<rect x="1233.5" y="360.5" width="79" height="79" stroke="white" stroke-opacity="0.6"/>
<rect x="1312.5" y="360.5" width="79" height="79" stroke="white" stroke-opacity="0.6"/>
<rect x="-30.5" y="440.5" width="79" height="79" stroke="white" stroke-opacity="0.6"/>
<rect x="48.5" y="440.5" width="79" height="79" stroke="white" stroke-opacity="0.6"/>
<rect x="127.5" y="440.5" width="79" height="79" stroke="white" stroke-opacity="0.6"/>
<rect x="206.5" y="440.5" width="79" height="79" stroke="white" stroke-opacity="0.6"/>
<rect x="285.5" y="440.5" width="79" height="79" stroke="white" stroke-opacity="0.6"/>
<rect x="364.5" y="440.5" width="79" height="79" stroke="white" stroke-opacity="0.6"/>
<rect x="443.5" y="440.5" width="79" height="79" stroke="white" stroke-opacity="0.6"/>
<rect x="522.5" y="440.5" width="79" height="79" stroke="white" stroke-opacity="0.6"/>
<rect x="601.5" y="440.5" width="79" height="79" stroke="white" stroke-opacity="0.6"/>
<rect x="680.5" y="440.5" width="79" height="79" stroke="white" stroke-opacity="0.6"/>
<rect x="759.5" y="440.5" width="79" height="79" stroke="white" stroke-opacity="0.6"/>
<rect x="838.5" y="440.5" width="79" height="79" stroke="white" stroke-opacity="0.6"/>
<rect x="917" y="440" width="80" height="80" fill="white" fill-opacity="0.25"/>
<rect x="917.5" y="440.5" width="79" height="79" stroke="white" stroke-opacity="0.6"/>
<rect x="996.5" y="440.5" width="79" height="79" stroke="white" stroke-opacity="0.6"/>
<rect x="1075.5" y="440.5" width="79" height="79" stroke="white" stroke-opacity="0.6"/>
<rect x="1154.5" y="440.5" width="79" height="79" stroke="white" stroke-opacity="0.6"/>
<rect x="1233.5" y="440.5" width="79" height="79" stroke="white" stroke-opacity="0.6"/>
<rect x="1312.5" y="440.5" width="79" height="79" stroke="white" stroke-opacity="0.6"/>
<rect x="-30.5" y="520.5" width="79" height="79" stroke="white" stroke-opacity="0.6"/>
<rect x="48.5" y="520.5" width="79" height="79" stroke="white" stroke-opacity="0.6"/>
<rect x="127.5" y="520.5" width="79" height="79" stroke="white" stroke-opacity="0.6"/>
<rect x="206.5" y="520.5" width="79" height="79" stroke="white" stroke-opacity="0.6"/>
<rect x="285.5" y="520.5" width="79" height="79" stroke="white" stroke-opacity="0.6"/>
<rect x="364.5" y="520.5" width="79" height="79" stroke="white" stroke-opacity="0.6"/>
<rect x="443.5" y="520.5" width="79" height="79" stroke="white" stroke-opacity="0.6"/>
<rect x="522.5" y="520.5" width="79" height="79" stroke="white" stroke-opacity="0.6"/>
<rect x="601.5" y="520.5" width="79" height="79" stroke="white" stroke-opacity="0.6"/>
<rect x="680.5" y="520.5" width="79" height="79" stroke="white" stroke-opacity="0.6"/>
<rect x="759.5" y="520.5" width="79" height="79" stroke="white" stroke-opacity="0.6"/>
<rect x="838.5" y="520.5" width="79" height="79" stroke="white" stroke-opacity="0.6"/>
<rect x="917.5" y="520.5" width="79" height="79" stroke="white" stroke-opacity="0.6"/>
<rect x="996.5" y="520.5" width="79" height="79" stroke="white" stroke-opacity="0.6"/>
<rect x="1075.5" y="520.5" width="79" height="79" stroke="white" stroke-opacity="0.6"/>
<rect x="1154.5" y="520.5" width="79" height="79" stroke="white" stroke-opacity="0.6"/>
<rect x="1233.5" y="520.5" width="79" height="79" stroke="white" stroke-opacity="0.6"/>
<rect x="1312.5" y="520.5" width="79" height="79" stroke="white" stroke-opacity="0.6"/>
<rect x="-30.5" y="600.5" width="79" height="79" stroke="white" stroke-opacity="0.6"/>
<rect x="48.5" y="600.5" width="79" height="79" stroke="white" stroke-opacity="0.6"/>
<rect x="127.5" y="600.5" width="79" height="79" stroke="white" stroke-opacity="0.6"/>
<rect x="206.5" y="600.5" width="79" height="79" stroke="white" stroke-opacity="0.6"/>
<rect x="285.5" y="600.5" width="79" height="79" stroke="white" stroke-opacity="0.6"/>
<rect x="364.5" y="600.5" width="79" height="79" stroke="white" stroke-opacity="0.6"/>
<rect x="443.5" y="600.5" width="79" height="79" stroke="white" stroke-opacity="0.6"/>
<rect x="522.5" y="600.5" width="79" height="79" stroke="white" stroke-opacity="0.6"/>
<rect x="601.5" y="600.5" width="79" height="79" stroke="white" stroke-opacity="0.6"/>
<rect x="680.5" y="600.5" width="79" height="79" stroke="white" stroke-opacity="0.6"/>
<rect x="759.5" y="600.5" width="79" height="79" stroke="white" stroke-opacity="0.6"/>
<rect x="838.5" y="600.5" width="79" height="79" stroke="white" stroke-opacity="0.6"/>
<rect x="917.5" y="600.5" width="79" height="79" stroke="white" stroke-opacity="0.6"/>
<rect x="996.5" y="600.5" width="79" height="79" stroke="white" stroke-opacity="0.6"/>
<rect x="1075.5" y="600.5" width="79" height="79" stroke="white" stroke-opacity="0.6"/>
<rect x="1154.5" y="600.5" width="79" height="79" stroke="white" stroke-opacity="0.6"/>
<rect x="1233.5" y="600.5" width="79" height="79" stroke="white" stroke-opacity="0.6"/>
<rect x="1312.5" y="600.5" width="79" height="79" stroke="white" stroke-opacity="0.6"/>
<rect x="-30.5" y="680.5" width="79" height="79" stroke="white" stroke-opacity="0.6"/>
<rect x="48.5" y="680.5" width="79" height="79" stroke="white" stroke-opacity="0.6"/>
<rect x="127.5" y="680.5" width="79" height="79" stroke="white" stroke-opacity="0.6"/>
<rect x="206.5" y="680.5" width="79" height="79" stroke="white" stroke-opacity="0.6"/>
<rect x="285.5" y="680.5" width="79" height="79" stroke="white" stroke-opacity="0.6"/>
<rect x="364.5" y="680.5" width="79" height="79" stroke="white" stroke-opacity="0.6"/>
<rect x="443.5" y="680.5" width="79" height="79" stroke="white" stroke-opacity="0.6"/>
<rect x="522.5" y="680.5" width="79" height="79" stroke="white" stroke-opacity="0.6"/>
<rect x="601.5" y="680.5" width="79" height="79" stroke="white" stroke-opacity="0.6"/>
<rect x="680.5" y="680.5" width="79" height="79" stroke="white" stroke-opacity="0.6"/>
<rect x="759.5" y="680.5" width="79" height="79" stroke="white" stroke-opacity="0.6"/>
<rect x="838.5" y="680.5" width="79" height="79" stroke="white" stroke-opacity="0.6"/>
<rect x="917" y="680" width="80" height="80" fill="white" fill-opacity="0.25"/>
<rect x="917.5" y="680.5" width="79" height="79" stroke="white" stroke-opacity="0.6"/>
<rect x="996.5" y="680.5" width="79" height="79" stroke="white" stroke-opacity="0.6"/>
<rect x="1075.5" y="680.5" width="79" height="79" stroke="white" stroke-opacity="0.6"/>
<rect x="1154.5" y="680.5" width="79" height="79" stroke="white" stroke-opacity="0.6"/>
<rect x="1233.5" y="680.5" width="79" height="79" stroke="white" stroke-opacity="0.6"/>
<rect x="1312.5" y="680.5" width="79" height="79" stroke="white" stroke-opacity="0.6"/>
<rect x="-30.5" y="760.5" width="79" height="79" stroke="white" stroke-opacity="0.6"/>
<rect x="48.5" y="760.5" width="79" height="79" stroke="white" stroke-opacity="0.6"/>
<rect x="127.5" y="760.5" width="79" height="79" stroke="white" stroke-opacity="0.6"/>
<rect x="206.5" y="760.5" width="79" height="79" stroke="white" stroke-opacity="0.6"/>
<rect x="285.5" y="760.5" width="79" height="79" stroke="white" stroke-opacity="0.6"/>
<rect x="364.5" y="760.5" width="79" height="79" stroke="white" stroke-opacity="0.6"/>
<rect x="443.5" y="760.5" width="79" height="79" stroke="white" stroke-opacity="0.6"/>
<rect x="522.5" y="760.5" width="79" height="79" stroke="white" stroke-opacity="0.6"/>
<rect x="601.5" y="760.5" width="79" height="79" stroke="white" stroke-opacity="0.6"/>
<rect x="680.5" y="760.5" width="79" height="79" stroke="white" stroke-opacity="0.6"/>
<rect x="759.5" y="760.5" width="79" height="79" stroke="white" stroke-opacity="0.6"/>
</g>
<defs>
<filter id="filter0_f_518_2379" x="341" y="60.525" width="678.475" height="678.475" filterUnits="userSpaceOnUse" color-interpolation-filters="sRGB">
<feFlood flood-opacity="0" result="BackgroundImageFix"/>
<feBlend mode="normal" in="SourceGraphic" in2="BackgroundImageFix" result="shape"/>
<feGaussianBlur stdDeviation="100" result="effect1_foregroundBlur_518_2379"/>
</filter>
<radialGradient id="paint0_radial_518_2379" cx="0" cy="0" r="1" gradientUnits="userSpaceOnUse" gradientTransform="translate(680.5 400) rotate(90) scale(542.421 857.395)">
<stop stop-color="#D9D9D9" stop-opacity="0.2"/>
<stop offset="0.802083" stop-color="#D9D9D9" stop-opacity="0"/>
</radialGradient>
</defs>
</svg>
