<svg width="96" height="96" viewBox="0 0 96 96" fill="none" xmlns="http://www.w3.org/2000/svg">
<path d="M84.8 54.3999C84.8 55.2831 84.0832 55.9999 83.2 55.9999C82.3168 55.9999 81.6 55.2831 81.6 54.3999C81.6 53.5167 82.3168 52.7999 83.2 52.7999C84.0832 52.7999 84.8 53.5167 84.8 54.3999Z" fill="#3BB75E"/>
<path d="M92.8 16C92.8 16.8832 92.0832 17.6 91.2 17.6C90.3168 17.6 89.6 16.8832 89.6 16C89.6 15.1168 90.3168 14.4 91.2 14.4C92.0832 14.4 92.8 15.1168 92.8 16Z" fill="#3BB75E"/>
<path d="M6.39998 78.3999C6.39998 79.2831 5.68318 79.9999 4.79998 79.9999C3.91678 79.9999 3.19998 79.2831 3.19998 78.3999C3.19998 77.5167 3.91678 76.7999 4.79998 76.7999C5.68318 76.7999 6.39998 77.5167 6.39998 78.3999Z" fill="#3BB75E"/>
<path d="M16 38.3999C16 39.2831 15.2832 39.9999 14.4 39.9999C13.5168 39.9999 12.8 39.2831 12.8 38.3999C12.8 37.5167 13.5168 36.7999 14.4 36.7999C15.2832 36.7999 16 37.5167 16 38.3999Z" fill="#3BB75E"/>
<path fill-rule="evenodd" clip-rule="evenodd" d="M14.4 7.99998C10.8624 7.99998 7.99998 5.13758 7.99998 1.59998C7.99998 5.13758 5.13758 7.99998 1.59998 7.99998C5.13758 7.99998 7.99998 10.8624 7.99998 14.4C7.99998 10.8624 10.8624 7.99998 14.4 7.99998Z" stroke="#3BB75E" stroke-width="2" stroke-linecap="round" stroke-linejoin="round"/>
<path fill-rule="evenodd" clip-rule="evenodd" d="M86.4 91.2L81.6 86.4L86.4 81.6L91.2 86.4L86.4 91.2Z" stroke="#3BB75E" stroke-width="2" stroke-linecap="round"/>
<path d="M86.4 81.6V78.4" stroke="#3BB75E" stroke-width="2" stroke-linecap="round"/>
<path d="M91.2 86.4H94.4" stroke="#3BB75E" stroke-width="2" stroke-linecap="round"/>
<path d="M86.4 91.2V94.4" stroke="#3BB75E" stroke-width="2" stroke-linecap="round"/>
<path d="M81.6 86.4H78.4" stroke="#3BB75E" stroke-width="2" stroke-linecap="round"/>
<path fill-rule="evenodd" clip-rule="evenodd" d="M52.8 65.5999C52.8 73.5535 50.6512 79.9999 48 79.9999C45.3488 79.9999 43.2 73.5535 43.2 65.5999C43.2 57.6463 45.3488 51.2 48 51.2C50.6512 51.2 52.8 57.6463 52.8 65.5999Z" stroke="#3BB75E" stroke-width="2" stroke-linejoin="round"/>
<path fill-rule="evenodd" clip-rule="evenodd" d="M65.6 44.8C65.6 40.4336 65.3696 36.616 65.0832 33.5584C64.5056 27.3824 63.0208 21.3072 60.3696 15.6992C54.7328 3.77918 48 1.59998 48 1.59998C48 1.59998 41.2672 3.77918 35.6304 15.6992C32.9792 21.3072 31.4944 27.3824 30.9168 33.5584C30.6304 36.616 30.4 40.4336 30.4 44.8C30.4 44.8 30.2 63.8 35.2 68.8C35.2 68.8 37.6112 72.1728 43.9408 73.2592C43.4736 71.0384 43.2 68.4176 43.2 65.6C43.2 57.6464 45.3488 51.2 48 51.2C50.6512 51.2 52.8 57.6464 52.8 65.6C52.8 68.4176 52.5264 71.0384 52.0592 73.2592C58.3888 72.1728 60.8 68.8 60.8 68.8C65.8 63.8 65.6 44.8 65.6 44.8Z" stroke="#3BB75E" stroke-width="2" stroke-linejoin="round"/>
<path fill-rule="evenodd" clip-rule="evenodd" d="M65.6 51.2L65.3584 51.6832C64.9424 57.648 63.8208 65.7792 60.8 68.8C60.8 68.8 60.7728 68.8368 60.7312 68.888C60.7216 68.9008 60.7216 68.9008 60.7088 68.9152C60.6608 68.9744 60.5952 69.0528 60.504 69.152C60.4864 69.1712 60.48 69.1808 60.4608 69.2016L71.0096 76.5872C72.1008 77.3504 73.6 76.5696 73.6 75.2384V68.8C73.6 56.2 65.6 51.2 65.6 51.2Z" stroke="#3BB75E" stroke-width="2" stroke-linejoin="round"/>
<path fill-rule="evenodd" clip-rule="evenodd" d="M35.2909 68.9156C35.2781 68.9012 35.2781 68.9012 35.2685 68.8884C35.2269 68.8372 35.1997 68.8004 35.1997 68.8004C32.1789 65.778 31.0573 57.6484 30.6413 51.6836L30.3997 51.2004C30.3997 51.2004 22.3997 56.2004 22.3997 68.8004V75.2388C22.3997 76.57 23.8989 77.3508 24.9901 76.5876L35.5389 69.202C35.5213 69.1812 35.5149 69.1716 35.4973 69.1524C35.4061 69.0532 35.3389 68.9748 35.2909 68.9156Z" stroke="#3BB75E" stroke-width="2" stroke-linejoin="round"/>
<path fill-rule="evenodd" clip-rule="evenodd" d="M53.6838 74.2736C53.6838 74.2736 53.143 73.6512 52.1014 73.0576C51.2582 77.2144 49.7398 80 48.0006 80C46.2614 80 44.743 77.216 43.8998 73.0608C43.3734 73.3744 42.8374 73.752 42.3158 74.2736C39.5766 77.0128 39.2582 81.2816 41.4086 84.504L48.0006 94.4L54.5926 84.5296C56.7414 81.3056 56.423 77.0128 53.6838 74.2736Z" stroke="#3BB75E" stroke-width="2" stroke-linejoin="round"/>
<path fill-rule="evenodd" clip-rule="evenodd" d="M59.2 33.6C59.2 39.7856 54.1856 44.8 48 44.8C41.8144 44.8 36.8 39.7856 36.8 33.6C36.8 27.4144 41.8144 22.4 48 22.4C54.1856 22.4 59.2 27.4144 59.2 33.6Z" stroke="#3BB75E" stroke-width="2" stroke-linejoin="round"/>
<path fill-rule="evenodd" clip-rule="evenodd" d="M52.8 33.5999C52.8 36.2511 50.6512 38.3999 48 38.3999C45.3488 38.3999 43.2 36.2511 43.2 33.5999C43.2 30.9487 45.3488 28.7999 48 28.7999C50.6512 28.7999 52.8 30.9487 52.8 33.5999Z" stroke="#3BB75E" stroke-width="2" stroke-linejoin="round"/>
<path fill-rule="evenodd" clip-rule="evenodd" d="M48 16C52.1552 16 55.9312 14.7248 58.7728 12.6448C53.5376 3.41757 48 1.59998 48 1.59998C48 1.59998 42.4624 3.41757 37.2272 12.6448C40.0688 14.7248 43.8448 16 48 16Z" stroke="#3BB75E" stroke-width="2" stroke-linejoin="round"/>
</svg>
